<svg width="24" height="24" viewBox="0 0 24 24" fill="none" xmlns="http://www.w3.org/2000/svg">
<path d="M12 24C18.6274 24 24 18.6274 24 12C24 5.37258 18.6274 0 12 0C5.37258 0 0 5.37258 0 12C0 18.6274 5.37258 24 12 24Z" fill="black"/>
<path d="M13.9327 5C13.9609 5 13.989 5 14.0187 5C14.0877 5.85257 13.7623 6.4896 13.3668 6.95092C12.9788 7.40906 12.4474 7.85339 11.5879 7.78597C11.5306 6.94561 11.8565 6.35582 12.2515 5.89557C12.6178 5.46663 13.2893 5.08494 13.9327 5Z" fill="white"/>
<path d="M16.5345 13.874C16.5345 13.8824 16.5345 13.8899 16.5345 13.8978C16.293 14.6294 15.9484 15.2563 15.528 15.8381C15.1442 16.3664 14.6738 17.0772 13.834 17.0772C13.1083 17.0772 12.6263 16.6105 11.8825 16.5978C11.0958 16.5851 10.6632 16.988 9.94383 17.0894C9.86155 17.0894 9.77927 17.0894 9.69858 17.0894C9.17037 17.0129 8.74408 16.5946 8.43353 16.2177C7.51779 15.104 6.81015 13.6653 6.6785 11.8243C6.6785 11.6438 6.6785 11.4638 6.6785 11.2833C6.73424 9.96574 7.37446 8.89446 8.22543 8.37528C8.67454 8.09923 9.29193 7.86406 9.9794 7.96917C10.274 8.01482 10.575 8.11569 10.8389 8.21549C11.0889 8.31157 11.4016 8.48198 11.6978 8.47296C11.8985 8.46712 12.0981 8.36254 12.3003 8.28875C12.8928 8.07481 13.4735 7.82955 14.239 7.94475C15.159 8.08383 15.812 8.4926 16.2154 9.12326C15.4372 9.61856 14.8219 10.365 14.927 11.6396C15.0205 12.7974 15.6936 13.4747 16.5345 13.874Z" fill="white"/>
</svg>
