<svg width="24" height="24" viewBox="0 0 24 24" fill="none" xmlns="http://www.w3.org/2000/svg">
<path d="M3.29703 5.2337C3.52245 4.27269 4.27281 3.52233 5.23382 3.29691C6.06665 3.10155 6.93339 3.10155 7.76622 3.29691C8.72723 3.52233 9.47758 4.27269 9.703 5.2337C9.89836 6.06653 9.89836 6.93327 9.703 7.7661C9.47758 8.72711 8.72723 9.47747 7.76622 9.70289C6.93339 9.89825 6.06665 9.89825 5.23382 9.70289C4.27281 9.47747 3.52245 8.72711 3.29703 7.7661C3.10168 6.93327 3.10168 6.06653 3.29703 5.2337Z" stroke="#8E9BB7" stroke-width="1.3"/>
<path d="M3.29703 16.2337C3.52245 15.2727 4.27281 14.5223 5.23382 14.2969C6.06665 14.1016 6.93339 14.1016 7.76622 14.2969C8.72723 14.5223 9.47758 15.2727 9.703 16.2337C9.89836 17.0665 9.89836 17.9333 9.703 18.7661C9.47758 19.7271 8.72723 20.4775 7.76622 20.7029C6.93339 20.8982 6.06665 20.8982 5.23382 20.7029C4.27281 20.4775 3.52245 19.7271 3.29703 18.7661C3.10168 17.9333 3.10168 17.0665 3.29703 16.2337Z" stroke="#8E9BB7" stroke-width="1.3"/>
<path d="M14.297 5.2337C14.5224 4.27269 15.2728 3.52233 16.2338 3.29691C17.0666 3.10155 17.9334 3.10155 18.7662 3.29691C19.7272 3.52233 20.4776 4.27269 20.703 5.2337C20.8983 6.06653 20.8983 6.93327 20.703 7.7661C20.4776 8.72711 19.7272 9.47747 18.7662 9.70289C17.9334 9.89825 17.0666 9.89825 16.2338 9.70289C15.2728 9.47747 14.5224 8.72711 14.297 7.7661C14.1017 6.93327 14.1017 6.06653 14.297 5.2337Z" stroke="#8E9BB7" stroke-width="1.3"/>
<path d="M14.297 16.2337C14.5224 15.2727 15.2728 14.5223 16.2338 14.2969C17.0666 14.1016 17.9334 14.1016 18.7662 14.2969C19.7272 14.5223 20.4776 15.2727 20.703 16.2337C20.8983 17.0665 20.8983 17.9333 20.703 18.7661C20.4776 19.7271 19.7272 20.4775 18.7662 20.7029C17.9334 20.8982 17.0666 20.8982 16.2338 20.7029C15.2728 20.4775 14.5224 19.7271 14.297 18.7661C14.1017 17.9333 14.1017 17.0665 14.297 16.2337Z" stroke="#8E9BB7" stroke-width="1.3"/>
</svg>
