<svg width="24" height="24" viewBox="0 0 24 24" fill="none" xmlns="http://www.w3.org/2000/svg">
<path d="M12 24C18.6274 24 24 18.6274 24 12C24 5.37258 18.6274 0 12 0C5.37258 0 0 5.37258 0 12C0 18.6274 5.37258 24 12 24Z" fill="#415DAE"/>
<path d="M14.992 6H12.9542C11.7449 6 10.3999 6.47867 10.3999 8.12839C10.4058 8.70322 10.3999 9.25373 10.3999 9.8733H9.00089V11.9684H10.4431V18H13.0934V11.9286H14.8426L15.0009 9.86742H13.0477C13.0477 9.86742 13.0521 8.9505 13.0477 8.68423C13.0477 8.03229 13.7685 8.06963 13.8118 8.06963C14.1548 8.06963 14.8218 8.07057 14.993 8.06963V6H14.992Z" fill="white"/>
</svg>
