<svg width="24" height="24" viewBox="0 0 24 24" fill="none" xmlns="http://www.w3.org/2000/svg">
<path d="M12 24C18.6274 24 24 18.6274 24 12C24 5.37258 18.6274 0 12 0C5.37258 0 0 5.37258 0 12C0 18.6274 5.37258 24 12 24Z" fill="#FAFAFA"/>
<path d="M8.28829 13.3909L7.82418 15.1235L6.12785 15.1593C5.6209 14.2191 5.33334 13.1432 5.33334 12C5.33334 10.8945 5.6022 9.85202 6.07876 8.93408H6.07912L7.58933 9.21096L8.2509 10.7121C8.11243 11.1158 8.03696 11.5491 8.03696 12C8.03702 12.4894 8.12566 12.9583 8.28829 13.3909Z" fill="#FBBB00"/>
<path d="M18.5502 10.7544C18.6268 11.1577 18.6667 11.5742 18.6667 11.9998C18.6667 12.4771 18.6165 12.9427 18.5209 13.3918C18.1964 14.92 17.3484 16.2544 16.1737 17.1987L16.1733 17.1984L14.2711 17.1013L14.0019 15.4207C14.7814 14.9636 15.3905 14.2482 15.7114 13.3918H12.1466V10.7544H15.7634H18.5502Z" fill="#518EF8"/>
<path d="M16.1733 17.1986L16.1737 17.1989C15.0312 18.1172 13.5799 18.6667 12 18.6667C9.4612 18.6667 7.25388 17.2476 6.12787 15.1594L8.28831 13.3909C8.85131 14.8934 10.3008 15.963 12 15.963C12.7304 15.963 13.4147 15.7656 14.0019 15.4209L16.1733 17.1986Z" fill="#28B446"/>
<path d="M16.2552 6.86804L14.0955 8.63617C13.4878 8.25633 12.7695 8.0369 11.9999 8.0369C10.2622 8.0369 8.78563 9.15557 8.25084 10.712L6.07904 8.93398H6.07867C7.18821 6.79479 9.42336 5.33325 11.9999 5.33325C13.6175 5.33325 15.1007 5.90945 16.2552 6.86804Z" fill="#F14336"/>
</svg>
