<svg width="16" height="16" viewBox="0 0 16 16" fill="none" xmlns="http://www.w3.org/2000/svg">
<path d="M11.986 9.85992C11.986 10.0333 11.9794 10.1999 11.9594 10.3599C13.7527 10.2066 14.6527 9.15325 14.6527 7.19325V4.52659C14.6527 2.39993 13.586 1.33325 11.4594 1.33325H7.19269C5.23933 1.33325 4.17933 2.23326 4.026 4.02659C4.186 4.00659 4.35267 3.99992 4.526 3.99992" stroke="white"/>
<path fill-rule="evenodd" clip-rule="evenodd" d="M11.9867 9.86V7.19333C11.9867 5.06667 10.92 4 8.79337 4H4.52671C4.35338 4 4.18671 4.00667 4.02671 4.02667C2.23338 4.18001 1.33337 5.24001 1.33337 7.19333V9.86C1.33337 12.5267 2.40005 13.0533 4.52671 13.0533H4.79337C4.94004 13.0533 5.13337 13.1533 5.22003 13.2667L6.02004 14.3333C6.37337 14.8067 6.94671 14.8067 7.30004 14.3333L8.10004 13.2667C8.20004 13.1333 8.36004 13.0533 8.52671 13.0533H8.79337C10.7467 13.0533 11.8067 12.16 11.96 10.36C11.98 10.2 11.9867 10.0333 11.9867 9.86ZM5.99353 8.66667C5.99353 9.03333 6.28686 9.33333 6.6602 9.33333C7.03351 9.33333 7.32684 9.03333 7.32684 8.66667C7.32684 8.3 7.02684 8 6.6602 8C6.29353 8 5.99353 8.3 5.99353 8.66667ZM8.99345 9.33333C8.62012 9.33333 8.32678 9.03333 8.32678 8.66667C8.32678 8.3 8.62678 8 8.99345 8C9.36012 8 9.66012 8.3 9.66012 8.66667C9.66012 9.03333 9.36012 9.33333 8.99345 9.33333ZM3.66663 8.66667C3.66663 9.03333 3.95996 9.33333 4.33329 9.33333C4.69996 9.33333 4.99996 9.03333 4.99996 8.66667C4.99996 8.3 4.69996 8 4.33329 8C3.96663 8 3.66663 8.3 3.66663 8.66667Z" fill="white"/>
</svg>
