<svg width="24" height="24" viewBox="0 0 24 24" fill="none" xmlns="http://www.w3.org/2000/svg">
<path d="M10.7406 2.94598C11.3317 2.03257 12.6682 2.03257 13.2593 2.94598L13.7173 3.65376C14.1031 4.24986 14.8539 4.49383 15.5164 4.23832L16.303 3.93494C17.3181 3.54341 18.3993 4.32895 18.3406 5.41535L18.2951 6.25717C18.2568 6.96618 18.7209 7.60491 19.407 7.78758L20.2217 8.00448C21.2731 8.28439 21.686 9.5554 21 10.3998L20.4684 11.0542C20.0207 11.6052 20.0207 12.3948 20.4684 12.9458L21 13.6002C21.686 14.4446 21.2731 15.7156 20.2217 15.9955L19.407 16.2124C18.7209 16.3951 18.2568 17.0338 18.2951 17.7428L18.3406 18.5847C18.3993 19.6711 17.3181 20.4566 16.303 20.0651L15.5164 19.7617C14.8539 19.5062 14.1031 19.7501 13.7173 20.3462L13.2593 21.054C12.6682 21.9674 11.3317 21.9674 10.7406 21.054L10.2826 20.3462C9.89685 19.7501 9.14598 19.5062 8.48351 19.7617L7.69693 20.0651C6.68184 20.4566 5.60065 19.6711 5.65933 18.5847L5.7048 17.7428C5.74309 17.0338 5.27903 16.3951 4.59289 16.2124L3.77821 15.9955C2.72685 15.7156 2.31387 14.4446 2.99992 13.6002L3.53151 12.9458C3.97924 12.3948 3.97924 11.6052 3.53151 11.0542L2.99992 10.3998C2.31387 9.5554 2.72685 8.28439 3.77821 8.00448L4.59289 7.78758C5.27903 7.60491 5.74309 6.96618 5.7048 6.25717L5.65933 5.41535C5.60065 4.32895 6.68184 3.54341 7.69694 3.93494L8.48351 4.23832C9.14598 4.49383 9.89685 4.24986 10.2826 3.65376L10.7406 2.94598Z" stroke="#8E9BB7" stroke-width="1.3" stroke-linejoin="round"/>
<path d="M14.9815 9.1709L9.20166 14.9507" stroke="#8E9BB7" stroke-width="1.5" stroke-linecap="round" stroke-linejoin="round"/>
<circle cx="9.59033" cy="9.45654" r="1" fill="#8E9BB7"/>
<circle cx="14.4095" cy="14.5435" r="1" fill="#8E9BB7"/>
</svg>
