<svg width="24" height="24" viewBox="0 0 24 24" fill="none" xmlns="http://www.w3.org/2000/svg">
<path d="M16.1159 5.99035C18.903 8.77745 18.903 13.2962 16.1159 16.0833C13.3288 18.8704 8.81004 18.8704 6.02294 16.0833C3.23584 13.2962 3.23584 8.77745 6.02294 5.99035C8.81004 3.20325 13.3288 3.20325 16.1159 5.99035Z" stroke="white" stroke-width="1.3"/>
<path d="M8.01547 14.0907C8.26931 14.3446 8.68087 14.3446 8.93471 14.0907C9.18855 13.8369 9.18855 13.4253 8.93471 13.1715L8.01547 14.0907ZM8.93471 8.90225C9.18855 8.64841 9.18855 8.23685 8.93471 7.98301C8.68087 7.72917 8.26931 7.72917 8.01547 7.98301L8.93471 8.90225ZM8.93471 13.1715C7.7558 11.9926 7.7558 10.0812 8.93471 8.90225L8.01547 7.98301C6.32888 9.66961 6.32888 12.4041 8.01547 14.0907L8.93471 13.1715Z" fill="white"/>
<path d="M16.0796 16.1123L20.0673 20.1" stroke="white" stroke-width="1.3" stroke-linecap="round"/>
</svg>
