<svg width="18" height="18" viewBox="0 0 18 18" fill="none" xmlns="http://www.w3.org/2000/svg">
<path d="M13.1159 2.99023C15.903 5.77733 15.903 10.2961 13.1159 13.0832C10.3288 15.8703 5.81004 15.8703 3.02294 13.0832C0.235843 10.2961 0.235843 5.77733 3.02294 2.99023C5.81004 0.203127 10.3288 0.203127 13.1159 2.99023Z" stroke="#5E667C" stroke-width="1.3"/>
<path d="M5.01553 11.0905C5.26937 11.3443 5.68093 11.3443 5.93477 11.0905C6.18861 10.8366 6.18861 10.4251 5.93477 10.1712L5.01553 11.0905ZM5.93477 5.90201C6.18861 5.64817 6.18861 5.23661 5.93477 4.98277C5.68093 4.72893 5.26937 4.72893 5.01553 4.98277L5.93477 5.90201ZM5.93477 10.1712C4.75586 8.99232 4.75586 7.08092 5.93477 5.90201L5.01553 4.98277C3.32894 6.66936 3.32894 9.40388 5.01553 11.0905L5.93477 10.1712Z" fill="#5E667C"/>
<path d="M13.0795 13.1123L17.0672 17.1" stroke="#5E667C" stroke-width="1.3" stroke-linecap="round"/>
</svg>
