<svg width="24" height="24" viewBox="0 0 24 24" fill="none" xmlns="http://www.w3.org/2000/svg">
<path d="M10.3036 2.71638C11.0868 1.46223 12.9132 1.46223 13.6964 2.71638L15.0364 4.86206C15.3887 5.42632 15.9986 5.77843 16.6635 5.80147L19.1917 5.88908C20.6694 5.94029 21.5826 7.52194 20.888 8.8273L19.6998 11.0606C19.3873 11.6479 19.3873 12.3521 19.6998 12.9394L20.888 15.1727C21.5826 16.4781 20.6694 18.0597 19.1917 18.1109L16.6635 18.1985C15.9986 18.2216 15.3887 18.5737 15.0364 19.1379L13.6964 21.2836C12.9132 22.5378 11.0868 22.5378 10.3036 21.2836L8.96365 19.1379C8.61127 18.5737 8.00139 18.2216 7.33654 18.1985L4.80834 18.1109C3.3306 18.0597 2.41744 16.4781 3.11196 15.1727L4.30018 12.9394C4.61266 12.3521 4.61266 11.6479 4.30018 11.0606L3.11196 8.8273C2.41744 7.52193 3.3306 5.94029 4.80834 5.88908L7.33654 5.80147C8.00139 5.77843 8.61127 5.42632 8.96365 4.86206L10.3036 2.71638Z" stroke="#8E9BB7" stroke-width="1.3" stroke-linejoin="round"/>
<circle cx="12" cy="12" r="3.5" stroke="#8E9BB7" stroke-width="1.3" stroke-linejoin="round"/>
</svg>
